HIERARCHY
ROOT Pelvis
{
	OFFSET 0.000000 0.000000 0.000000
	CHANNELS 6 Xposition Yposition Zposition Xrotation Yrotation Zrotation
	JOINT LeftUpLeg_virtual
	{
		OFFSET 0.000000 0.000000 0.000000
		CHANNELS 3 Xrotation Yrotation Zrotation
		JOINT LeftUpLeg
		{
			OFFSET 8.479700 -4.795502 -0.379100
			CHANNELS 3 Xrotation Yrotation Zrotation
			JOINT LeftLeg
			{
				OFFSET 0.024144 -32.555107 0.112900
				CHANNELS 3 Xrotation Yrotation Zrotation
				JOINT LeftFoot
				{
					OFFSET -0.024144 -32.638630 -3.012600
					CHANNELS 3 Xrotation Yrotation Zrotation
					JOINT LeftToeBase
					{
						OFFSET 0.970200 -13.225400 11.864200
						CHANNELS 3 Xrotation Yrotation Zrotation
						End Site
						{
							OFFSET 0 0 0
						}
					}
				}
			}
		}
	}
	JOINT RightUpLeg_virtual
	{
		OFFSET 0.000000 0.000000 0.000000
		CHANNELS 3 Xrotation Yrotation Zrotation
		JOINT RightUpLeg
		{
			OFFSET -8.479700 -4.795502 -0.379100
			CHANNELS 3 Xrotation Yrotation Zrotation
			JOINT RightLeg
			{
				OFFSET -0.023144 -32.555092 0.112900
				CHANNELS 3 Xrotation Yrotation Zrotation
				JOINT RightFoot
				{
					OFFSET 0.023144 -32.638641 -3.012700
					CHANNELS 3 Xrotation Yrotation Zrotation
					JOINT RightToeBase
					{
						OFFSET -0.970200 -13.225400 11.864200
						CHANNELS 3 Xrotation Yrotation Zrotation
						End Site
						{
							OFFSET 0 0 0
						}
					}
				}
			}
		}
	}
	JOINT Hips_virtual
	{
		OFFSET 0.000000 0.000000 0.000000
		CHANNELS 3 Xrotation Yrotation Zrotation
		JOINT Hips
		{
			OFFSET -0.000000 -0.000000 -0.000000
			CHANNELS 3 Xrotation Yrotation Zrotation
			JOINT Spine
			{
				OFFSET 0.000000 7.722000 1.166200
				CHANNELS 3 Xrotation Yrotation Zrotation
				JOINT Spine1
				{
					OFFSET 0.000000 12.024101 0.248800
					CHANNELS 3 Xrotation Yrotation Zrotation
					JOINT Spine2
					{
						OFFSET 0.000000 11.502998 -0.491200
						CHANNELS 3 Xrotation Yrotation Zrotation
						JOINT Neck_virtual
						{
							OFFSET 0.000000 0.000000 0.000000
							CHANNELS 3 Xrotation Yrotation Zrotation
							JOINT Neck
							{
								OFFSET 0.000000 18.430702 -3.123100
								CHANNELS 3 Xrotation Yrotation Zrotation
								JOINT Head
								{
									OFFSET 0.000000 9.051102 1.034000
									CHANNELS 3 Xrotation Yrotation Zrotation
									End Site
									{
										OFFSET 0 0 0
									}
								}
							}
						}
						JOINT LeftShoulder_virtual
						{
							OFFSET 0.000000 0.000000 0.000000
							CHANNELS 3 Xrotation Yrotation Zrotation
							JOINT LeftShoulder
							{
								OFFSET 6.197800 13.665199 -4.064700
								CHANNELS 3 Xrotation Yrotation Zrotation
								JOINT LeftArm
								{
									OFFSET 7.778100 -0.187103 -1.709300
									CHANNELS 3 Xrotation Yrotation Zrotation
									JOINT LeftForeArm
									{
										OFFSET 22.049376 0.000000 0.000000
										CHANNELS 3 Xrotation Yrotation Zrotation
										JOINT LeftHand
										{
											OFFSET 23.009392 0.000000 0.000000
											CHANNELS 3 Xrotation Yrotation Zrotation
											End Site
											{
												OFFSET 0 0 0
											}
										}
									}
								}
							}
						}
						JOINT RightShoulder_virtual
						{
							OFFSET 0.000000 0.000000 0.000000
							CHANNELS 3 Xrotation Yrotation Zrotation
							JOINT RightShoulder
							{
								OFFSET -6.197800 13.665199 -4.064700
								CHANNELS 3 Xrotation Yrotation Zrotation
								JOINT RightArm
								{
									OFFSET -7.778100 -0.187103 -1.709300
									CHANNELS 3 Xrotation Yrotation Zrotation
									JOINT RightForeArm
									{
										OFFSET -22.049376 0.000000 0.000000
										CHANNELS 3 Xrotation Yrotation Zrotation
										JOINT RightHand
										{
											OFFSET -23.009392 0.000000 0.000000
											CHANNELS 3 Xrotation Yrotation Zrotation
											End Site
											{
												OFFSET 0 0 0
											}
										}
									}
								}
							}
						}
					}
				}
			}
		}
	}
}
MOTION
Frames: 12
Frame Time: 0.03333333
-0.045881 81.141548 0.380262 0.000000 0.000000 0.000000 -0.893277 1.578224 -4.956534 -20.307267 10.464071 16.520751 23.106950 9.350812 2.388282 -1.434200 3.428457 -9.692061 0.000000 0.000000 0.000000 -0.893277 1.578224 -4.956534 -0.252313 -4.705315 10.926891 9.246741 -5.173045 3.262388 -8.105660 1.009510 -8.568024 0.000000 0.000000 0.000000 -0.893277 1.578224 -4.956534 0.000000 0.000000 0.000000 1.289588 -1.207122 2.614245 0.728744 0.264195 5.944686 0.000000 0.000000 0.000000 0.710789 0.781493 5.851996 1.045309 -0.304693 -2.163987 0.000000 0.000000 0.000000 0.710789 0.781493 5.851996 3.582359 -13.764037 -5.044453 4.032790 3.514250 -83.678321 -0.000002 -14.506751 0.000021 0.000000 0.000000 0.000000 0.710789 0.781493 5.851996 4.508128 3.324373 5.471577 -1.219627 0.655872 67.345426 -0.000003 17.736782 -0.000005 0.000000 0.000000 0.000000 
-0.157778 81.139786 0.367575 0.000000 0.000000 0.000000 -0.842819 1.628861 -5.063587 -20.402945 10.353167 16.699205 23.072418 9.440092 2.411654 -1.345527 3.313249 -9.793330 0.000000 0.000000 0.000000 -0.842819 1.628861 -5.063587 -0.105184 -4.566394 11.153738 8.804650 -5.298002 3.285438 -7.889457 0.974036 -8.698482 0.000000 0.000000 0.000000 -0.842819 1.628861 -5.063587 0.000000 0.000000 0.000000 1.253440 -1.206336 2.638549 0.804995 0.271352 5.942363 0.000000 0.000000 0.000000 0.791298 0.784184 5.830779 0.939036 -0.325876 -2.038773 0.000000 0.000000 0.000000 0.791298 0.784184 5.830779 3.578791 -13.707248 -5.015856 3.780840 3.390083 -83.456039 0.000001 -14.511150 -0.000015 0.000000 0.000000 0.000000 0.791298 0.784184 5.830779 4.481676 3.349433 5.590988 -1.177696 1.237859 67.216233 -0.000003 17.736825 0.000018 0.000000 0.000000 0.000000 
-0.268433 81.135345 0.356783 0.000000 0.000000 0.000000 -0.793272 1.682045 -5.173134 -20.506822 10.238571 16.879078 23.057996 9.518402 2.437833 -1.267839 3.207866 -9.896442 0.000000 0.000000 0.000000 -0.793272 1.682045 -5.173134 0.038573 -4.426553 11.381890 8.374498 -5.424890 3.308152 -7.682114 0.939435 -8.828464 0.000000 0.000000 0.000000 -0.793272 1.682045 -5.173134 0.000000 0.000000 0.000000 1.217167 -1.214552 2.661687 0.883787 0.274246 5.935622 0.000000 0.000000 0.000000 0.874438 0.782059 5.804658 0.823466 -0.344953 -1.909927 0.000000 0.000000 0.000000 0.874438 0.782059 5.804658 3.574454 -13.651339 -4.988281 3.522156 3.255681 -83.224605 0.000003 -14.517244 0.000017 0.000000 0.000000 0.000000 0.874438 0.782059 5.804658 4.449802 3.381857 5.730772 -1.131085 1.840463 67.077082 0.000000 17.687984 0.000003 0.000000 0.000000 0.000000 
-0.374824 81.123848 0.351185 0.000000 0.000000 0.000000 -0.745956 1.742204 -5.287931 -20.633848 10.114313 17.061251 23.100584 9.567577 2.471132 -1.221819 3.128776 -10.004650 0.000000 0.000000 0.000000 -0.745956 1.742204 -5.287931 0.149913 -4.288854 11.608775 8.023350 -5.556611 3.329828 -7.519670 0.907599 -8.949894 0.000000 0.000000 0.000000 -0.745956 1.742204 -5.287931 0.000000 0.000000 0.000000 1.181013 -1.231272 2.683433 0.965308 0.273020 5.924297 0.000000 0.000000 0.000000 0.960402 0.775222 5.773463 0.698737 -0.362127 -1.777487 0.000000 0.000000 0.000000 0.960402 0.775222 5.773463 3.569244 -13.596744 -4.962269 3.256769 3.110458 -82.983117 0.000004 -14.524932 0.000006 0.000000 0.000000 0.000000 0.960402 0.775222 5.773463 4.412046 3.421893 5.891968 -1.079197 2.463871 66.927152 0.000001 17.587204 -0.000007 0.000000 0.000000 0.000000 
-0.480783 81.107491 0.348431 0.000000 0.000000 0.000000 -0.700543 1.806293 -5.409123 -20.777038 9.981714 17.249373 23.180834 9.597957 2.510346 -1.195064 3.066851 -10.119035 0.000000 0.000000 0.000000 -0.700543 1.806293 -5.409123 0.245041 -4.151834 11.840021 7.713911 -5.689832 3.351371 -7.381516 0.877069 -9.069198 0.000000 0.000000 0.000000 -0.700543 1.806293 -5.409123 0.000000 0.000000 0.000000 1.145247 -1.257703 2.704184 1.050319 0.266991 5.907280 0.000000 0.000000 0.000000 1.049970 0.762833 5.735963 0.563218 -0.377230 -1.640716 0.000000 0.000000 0.000000 1.049970 0.762833 5.735963 3.562878 -13.544199 -4.938704 2.983156 2.951942 -82.727852 -0.000002 -14.534474 0.000013 0.000000 0.000000 0.000000 1.049970 0.762833 5.735963 4.366723 3.471357 6.080083 -1.020836 3.112629 66.763077 0.000003 17.420845 -0.000005 0.000000 0.000000 0.000000 
-0.589067 81.086807 0.347168 0.000000 0.000000 0.000000 -0.656988 1.873819 -5.538727 -20.935105 9.839546 17.446827 23.292299 9.611995 2.556124 -1.182155 3.019931 -10.241537 0.000000 0.000000 0.000000 -0.656988 1.873819 -5.538727 0.329445 -4.015146 12.080643 7.432925 -5.823519 3.373187 -7.260037 0.847291 -9.190098 0.000000 0.000000 0.000000 -0.656988 1.873819 -5.538727 0.000000 0.000000 0.000000 1.110233 -1.293569 2.724459 1.139288 0.256126 5.883983 0.000000 0.000000 0.000000 1.143613 0.744760 5.691526 0.416458 -0.390480 -1.499483 0.000000 0.000000 0.000000 1.143613 0.744760 5.691526 3.555134 -13.494540 -4.918651 2.700902 2.778638 -82.456421 -0.000003 -14.545829 -0.000042 0.000000 0.000000 0.000000 1.143613 0.744760 5.691526 4.312632 3.531179 6.298295 -0.954853 3.788342 66.582644 0.000004 17.180397 -0.000014 0.000000 0.000000 0.000000 
-0.699784 81.062401 0.347694 0.000000 0.000000 0.000000 -0.615762 1.941522 -5.677080 -21.104917 9.689785 17.655300 23.431148 9.615356 2.607219 -1.181912 2.983513 -10.372245 0.000000 0.000000 0.000000 -0.615762 1.941522 -5.677080 0.400938 -3.879959 12.330237 7.184678 -5.953903 3.396031 -7.151932 0.817579 -9.312998 0.000000 0.000000 0.000000 -0.615762 1.941522 -5.677080 0.000000 0.000000 -0.000001 1.076383 -1.337177 2.744989 1.232320 0.241031 5.854369 0.000000 0.000000 0.000000 1.241433 0.721576 5.640134 0.259064 -0.402470 -1.354239 0.000000 0.000000 0.000000 1.241433 0.721576 5.640134 3.545849 -13.448692 -4.903266 2.410664 2.590257 -82.167845 0.000002 -14.558664 -0.000004 0.000000 0.000000 0.000000 1.241433 0.721576 5.640134 4.249134 3.601341 6.547298 -0.880253 4.489447 66.384617 -0.000004 16.863168 0.000003 0.000000 0.000000 0.000000 
-0.814514 81.034805 0.349733 0.000000 0.000000 0.000000 -0.577151 2.007188 -5.825530 -21.283786 9.532978 17.877819 23.591929 9.613108 2.663184 -1.191101 2.953285 -10.512334 0.000000 0.000000 0.000000 -0.577151 2.007188 -5.825530 0.408336 -3.760783 12.587712 7.064622 -6.078819 3.420687 -7.070795 0.787866 -9.435284 0.000000 0.000000 0.000000 -0.577151 2.007188 -5.825530 0.000000 0.000000 0.000000 1.044046 -1.385804 2.766661 1.329186 0.222788 5.818847 0.000000 0.000000 0.000000 1.343180 0.694388 5.582277 0.092361 -0.414049 -1.205987 0.000000 0.000000 0.000000 1.343180 0.694388 5.582277 3.534929 -13.407608 -4.893782 2.113963 2.387616 -81.862741 0.000002 -14.572567 -0.000004 0.000000 0.000000 0.000000 1.343180 0.694388 5.582277 4.176069 3.681073 6.825664 -0.796252 5.211826 66.168783 -0.000001 16.471464 -0.000003 0.000000 0.000000 0.000000 
-0.931652 81.004562 0.353678 0.000000 0.000000 0.000000 -0.541667 2.067190 -5.983113 -21.468977 9.372509 18.113930 23.772668 9.609336 2.722166 -1.210306 2.926293 -10.660083 0.000000 0.000000 0.000000 -0.541667 2.067190 -5.983113 0.408018 -3.643472 12.854636 6.968513 -6.194248 3.447249 -6.997450 0.757669 -9.560638 0.000000 0.000000 0.000000 -0.541667 2.067190 -5.983113 0.000000 0.000000 0.000000 1.013418 -1.436310 2.790319 1.429398 0.202694 5.778113 0.000000 0.000000 0.000000 1.448345 0.664556 5.518763 -0.082047 -0.426165 -1.055971 0.000000 0.000000 0.000000 1.448345 0.664556 5.518763 3.522325 -13.372173 -4.891374 1.812808 2.172308 -81.542808 0.000000 -14.586975 0.000002 0.000000 0.000000 0.000000 1.448345 0.664556 5.518763 4.093630 3.769173 7.130595 -0.702277 5.949832 65.935429 0.000001 16.011031 0.000006 0.000000 0.000000 0.000000 
-1.050573 80.972191 0.359766 0.000000 0.000000 0.000000 -0.509972 2.117876 -6.149698 -21.657365 9.211438 18.364815 23.970090 9.609070 2.782411 -1.239099 2.898211 -10.814564 0.000000 0.000000 0.000000 -0.509972 2.117876 -6.149698 0.404403 -3.527828 13.130099 6.889071 -6.295955 3.476473 -6.927907 0.726566 -9.689587 0.000000 0.000000 0.000000 -0.509972 2.117876 -6.149698 0.000000 0.000000 0.000000 0.984447 -1.485752 2.816705 1.532321 0.181997 5.732947 0.000000 0.000000 0.000000 1.556271 0.633411 5.450495 -0.262617 -0.439690 -0.905471 0.000000 0.000000 0.000000 1.556271 0.633411 5.450495 3.508032 -13.343160 -4.897133 1.509248 1.946279 -81.210478 0.000003 -14.601450 0.000005 0.000000 0.000000 0.000000 1.556271 0.633411 5.450495 4.002177 3.864297 7.458697 -0.597891 6.697526 65.684918 0.000004 15.489523 -0.000006 0.000000 0.000000 0.000000 
-1.169836 80.938187 0.368198 0.000000 0.000000 0.000000 -0.481900 2.157083 -6.324027 -21.847038 9.051658 18.628622 24.182239 9.614208 2.843025 -1.277567 2.868650 -10.974330 0.000000 0.000000 0.000000 -0.481900 2.157083 -6.324027 0.398510 -3.411846 13.412362 6.823157 -6.384754 3.506902 -6.860913 0.695364 -9.820040 0.000000 0.000000 0.000000 -0.481900 2.157083 -6.324027 0.000000 0.000000 0.000000 0.956834 -1.531926 2.846224 1.637297 0.161679 5.684108 0.000000 0.000000 0.000000 1.666274 0.602025 5.378336 -0.448065 -0.455283 -0.755525 0.000000 0.000000 0.000000 1.666274 0.602025 5.378336 3.492059 -13.321120 -4.911892 1.205043 1.711483 -80.868204 0.000005 -14.615676 0.000003 0.000000 0.000000 0.000000 1.666274 0.602025 5.378336 3.902147 3.965214 7.806596 -0.482712 7.449656 65.417202 -0.000007 14.915497 0.000035 0.000000 0.000000 0.000000 
-1.287951 80.903084 0.379404 0.000000 0.000000 0.000000 -0.457833 2.181559 -6.505286 -22.034979 8.896722 18.905004 24.405939 9.627460 2.902389 -1.325743 2.835551 -11.137688 0.000000 0.000000 0.000000 -0.457833 2.181559 -6.505286 0.392072 -3.294606 13.699513 6.768156 -6.459149 3.538009 -6.794904 0.664749 -9.950531 0.000000 0.000000 0.000000 -0.457833 2.181559 -6.505286 0.000000 0.000000 0.000000 0.930106 -1.573654 2.879058 1.743746 0.142329 5.632244 0.000000 0.000000 0.000000 1.777771 0.571072 5.302984 -0.637430 -0.473303 -0.606766 0.000000 0.000000 0.000000 1.777771 0.571072 5.302984 3.474438 -13.306354 -4.936189 0.901408 1.469573 -80.518177 -0.000001 -14.629541 -0.000022 0.000000 0.000000 0.000000 1.777771 0.571072 5.302984 3.793984 4.070906 8.171270 -0.356411 8.202339 65.131974 -0.000001 14.297637 -0.000022 0.000000 0.000000 0.000000 
